<svg width="75" height="75" viewBox="0 0 75 75" fill="none" xmlns="http://www.w3.org/2000/svg">
<rect width="75" height="75" rx="37.5" fill="white"/>
<path d="M9.2 42.4H8.96V42.24H8.76V42H8.96V41.44H8.4V41.84H8.16V41.44H7.72V41.2H8.16V40.64H7.6V41.28H7.36V40.64H6.84V40.4H7.36V39.84H6.8V40.72H6.56V39.84H6.28V39.6H6.56V39.08C6.50667 39.1067 6.44 39.1333 6.36 39.16C6.28 39.16 6.21333 39.1733 6.16 39.2C6.13333 39.2 6.10667 39.2133 6.08 39.24C6.05333 39.2667 6.02667 39.28 6 39.28V39.92H5.76V39.16C5.70667 39.1067 5.68 39.08 5.68 39.08C5.62667 39.0533 5.56 39.0133 5.48 38.96C5.42667 38.9067 5.37333 38.8533 5.32 38.8C5.32 38.7733 5.30667 38.7467 5.28 38.72C5.28 38.6933 5.28 38.6533 5.28 38.6C5.25333 38.4933 5.21333 38.3867 5.16 38.28C5.13333 38.1733 5.12 38.0667 5.12 37.96C5.06667 37.4267 5.2 36.88 5.52 36.32C5.78667 35.84 6.16 35.4267 6.64 35.08C7.12 34.7333 7.58667 34.4133 8.04 34.12C8.14667 34.04 8.25333 33.9733 8.36 33.92C8.46667 33.84 8.58667 33.7733 8.72 33.72C8.74667 33.72 8.77333 33.7067 8.8 33.68C8.85333 33.6267 8.90667 33.5867 8.96 33.56V33.44H9.2V33.68C9.25333 33.7333 9.29333 33.76 9.32 33.76C9.32 33.7867 9.36 33.8267 9.44 33.88C9.52 33.9067 9.57333 33.9333 9.6 33.96C9.6 33.9867 9.6 34 9.6 34H9.76V32.88H10V34H10.56V33.44H10.36V33.2H10.56V32.32H10.8V32.68C10.8533 32.52 10.96 32.36 11.12 32.2C11.2 32.12 11.28 32.0533 11.36 32V31.84H11.52C11.6267 31.76 11.72 31.6933 11.8 31.64V31.6H11.84C12.1067 31.3867 12.4133 31.16 12.76 30.92V30.8H12.92C13.1067 30.6933 13.28 30.5867 13.44 30.48C13.6267 30.3467 13.8 30.2267 13.96 30.12V30H14.16C14.24 29.9467 14.32 29.8933 14.4 29.84C14.5067 29.7867 14.6 29.7333 14.68 29.68C14.7867 29.6 14.88 29.5467 14.96 29.52C15.0667 29.4933 15.1467 29.4667 15.2 29.44H15.16V29.2H15.56V29.16H15.8V29.2H16.36V28.4H17.16V27.88H17.4V28.04C17.4533 27.96 17.5067 27.8933 17.56 27.84V27.6H17.84C17.8667 27.5733 17.9067 27.5333 17.96 27.48V27.4H18.08C18.1333 27.3467 18.2 27.2933 18.28 27.24C18.36 27.1867 18.44 27.1333 18.52 27.08C18.6 27 18.68 26.9333 18.76 26.88V26.84H18.8C19.04 26.68 19.2933 26.5067 19.56 26.32V26.28H19.64C19.8267 26.1467 20.0667 25.9867 20.36 25.8C20.44 25.7467 20.52 25.6933 20.6 25.64C20.76 25.56 20.9333 25.4667 21.12 25.36C21.3333 25.2267 21.52 25.1467 21.68 25.12C21.76 25.0933 21.8267 25.0933 21.88 25.12C21.96 25.12 22.04 25.12 22.12 25.12C22.1733 25.12 22.24 25.12 22.32 25.12C22.4 25.12 22.4667 25.1333 22.52 25.16C22.5733 25.1867 22.6267 25.24 22.68 25.32C22.7333 25.3733 22.7867 25.4267 22.84 25.48C22.8933 25.5333 22.9467 25.5867 23 25.64C23.0533 25.6933 23.1067 25.7467 23.16 25.8C23.16 25.8267 23.16 25.88 23.16 25.96C23.1867 26.0133 23.2133 26.0667 23.24 26.12C23.2667 26.2533 23.2933 26.3867 23.32 26.52C23.3467 26.6533 23.36 26.8 23.36 26.96C23.3867 27.52 23.4 28.0933 23.4 28.68C23.4 29.24 23.4 29.8 23.4 30.36C23.3733 30.7333 23.3333 31.12 23.28 31.52C23.2267 31.8933 23.1067 32.24 22.92 32.56C22.68 32.96 22.3467 33.32 21.92 33.64C21.4933 33.96 21.0667 34.2133 20.64 34.4C20.64 34.4 20.6267 34.4133 20.6 34.44H20.56C20.5067 34.4667 20.44 34.5067 20.36 34.56C20.28 34.5867 20.2133 34.6 20.16 34.6C20.08 34.6267 19.96 34.6133 19.8 34.56V35H19.56V34.48C19.4267 34.4533 19.3467 34.4267 19.32 34.4C19.2667 34.3733 19.2133 34.3067 19.16 34.2C19.1067 34.0933 19.0667 34 19.04 33.92L19 33.88V35.56H18.76V35.04H18.56C18.5333 35.12 18.4933 35.2 18.44 35.28C18.4133 35.3333 18.3867 35.3867 18.36 35.44C18.3333 35.4933 18.3067 35.5467 18.28 35.6H18.36V35.84H18.2V36.04H17.96V35.92C17.8 36.0267 17.6133 36.12 17.4 36.2V36.36H17.16V36.24C17 36.2667 16.8133 36.28 16.6 36.28V36.4H17.16V36.64H15.6V37.2H16.04V37.44H15.6V38H15.64V38.24H15.6V38.8H16.16V38.08H16.4V39.6H16.96V39.12H17.2V39.6H17.96V39.68H18V40.4H18.56V40.16H18.8V40.4H19.24V40.64H18.8V41.2H19.36V40.72H19.6V41.2H20.52V41.44H20.4V42H20.96V41.76H21.2V42H21.72V42.24H21.68C21.7067 42.2667 21.7467 42.2933 21.8 42.32H22V42.48C22.0533 42.5067 22.1067 42.5467 22.16 42.6C22.24 42.6267 22.2933 42.6667 22.32 42.72L22.4 42.8H22.6V43.04H22.56L22.6 43.12H22.8V43.48L22.84 43.6H23.08V43.84H22.92C22.9733 44.0533 23 44.2133 23 44.32V44.4H23.32V44.64H23C23 44.8267 22.9867 45.0133 22.96 45.2H23.32V45.44H22.92C22.92 45.4933 22.9067 45.5467 22.88 45.6C22.88 45.6533 22.88 45.7067 22.88 45.76C22.88 45.7867 22.88 45.8267 22.88 45.88C22.88 45.9067 22.88 45.9467 22.88 46H23.32V46.24H22.8V46.8H23.32V47.04H22.8V47.6H23.32V47.84H22.8V48.4H23.32V48.64H22.8V49.2H23.24V49.44H22.8V50.4H22.56V49.44H22V50.64H21.76V49.44H21.2V50.4H20.96V49.44H20.4V49.92H20.16V49.44H19.8V49.2H20.16V48.64H19.6V49.44H19.36V48.64H18.8V48.88H18.56V48.64H18.2V48.48L17.96 48.36C17.9067 48.36 17.8667 48.3467 17.84 48.32H17.76V48.28C17.7067 48.2533 17.64 48.2267 17.56 48.2C17.5067 48.1467 17.44 48.0933 17.36 48.04C17.28 47.9867 17.1867 47.92 17.08 47.84H16.92V47.72C16.7333 47.6133 16.5467 47.5067 16.36 47.4C16.2 47.2667 16.04 47.1467 15.88 47.04H15.72V46.92C15.4267 46.7067 15.16 46.5067 14.92 46.32C14.8933 46.2933 14.8667 46.2667 14.84 46.24H14.68V46.16H14.56V46.04C14.5333 46.0133 14.5067 45.9867 14.48 45.96C14.4267 45.88 14.3733 45.8 14.32 45.72C14.2667 45.64 14.2267 45.56 14.2 45.48C14.2 45.48 14.1867 45.4667 14.16 45.44H14V45.68H13.76V45.44H13.48V45.2H13.76V44.64H13.2V45.2H12.96V44.64H12.12V44.4H12.16V43.84H11.6V44.08H11.36V43.84H10.92V43.6H11.36V43.04H10.8V43.44H10.56V43.04H9.88V42.96H9.76V42.24H9.2V42.4ZM17 28.72L17.04 28.64H16.6V29.2H16.84C16.8667 29.04 16.92 28.88 17 28.72ZM16.28 29.44C16.3333 29.44 16.36 29.4533 16.36 29.48V29.44H16.28ZM16.6 29.88C16.6267 29.9067 16.6533 29.9467 16.68 30H16.8C16.7733 29.8133 16.7733 29.6267 16.8 29.44H16.6V29.88ZM16.8 30.24C16.8267 30.2933 16.8667 30.4 16.92 30.56C16.8933 30.4533 16.8667 30.3467 16.84 30.24H16.8ZM17.68 31.84C17.7333 31.92 17.7733 32 17.8 32.08C17.8533 32.1333 17.9067 32.1867 17.96 32.24V32.16C17.9067 32.1067 17.8533 32.0533 17.8 32C17.7733 31.9467 17.7333 31.8933 17.68 31.84ZM18.52 33.2H18.64C18.5067 32.96 18.4 32.7733 18.32 32.64H18.2C18.3333 32.8533 18.44 33.04 18.52 33.2ZM12.88 33.44C12.8 33.4667 12.72 33.52 12.64 33.6C12.56 33.6533 12.48 33.7067 12.4 33.76V34H12.96V33.44H12.88ZM13.2 34H13.76V33.48V33.44H13.2V34ZM18.76 34V33.44H18.6C18.7067 33.7067 18.76 33.8933 18.76 34ZM10.84 33.56C10.84 33.56 10.8267 33.56 10.8 33.56V34H11.36V33.92C11.3067 33.92 11.2667 33.92 11.24 33.92C11.1867 33.8933 11.12 33.84 11.04 33.76C10.96 33.68 10.8933 33.6133 10.84 33.56ZM12.12 33.88C12.04 33.9067 11.9467 33.92 11.84 33.92C11.76 33.92 11.68 33.92 11.6 33.92V34H12.16V33.88H12.12ZM9.48 34.28C9.4 34.4667 9.32 34.64 9.24 34.8H9.76V34.24H9.48C9.48 34.2667 9.48 34.28 9.48 34.28ZM10 34.8H10.56V34.24H10V34.8ZM10.8 34.8H11.36V34.24H10.8V34.8ZM11.6 34.8H12.16V34.24H11.6V34.8ZM12.4 34.8H12.96V34.24H12.4V34.8ZM13.2 34.8H13.76V34.24H13.2V34.8ZM18.68 34.6C18.68 34.68 18.6667 34.7467 18.64 34.8H18.76V34.24C18.76 34.2933 18.7467 34.36 18.72 34.44C18.72 34.4933 18.7067 34.5467 18.68 34.6ZM9.2 35.6H9.76V35.04H9.2V35.6ZM10 35.6H10.56V35.04H10V35.6ZM10.8 35.6H11.36V35.04H10.8V35.6ZM11.6 35.6H12.16V35.04H11.6V35.6ZM12.4 35.6H12.96V35.04H12.4V35.6ZM13.2 35.6H13.76V35.04H13.2V35.6ZM14.04 35.28C14.04 35.2533 14.0267 35.2133 14 35.16V35.6H14.16C14.1333 35.5733 14.1067 35.5333 14.08 35.48C14.08 35.4 14.0667 35.3333 14.04 35.28ZM8.84 35.44L8.72 35.6H8.96V35.24C8.93333 35.2933 8.89333 35.36 8.84 35.44ZM8.4 36.4H8.96V35.84H8.6C8.54667 35.9467 8.48 36.0533 8.4 36.16V36.4ZM9.2 36.4H9.76V35.84H9.2V36.4ZM10 36.4H10.56V35.84H10V36.4ZM10.8 36.4H11.36V35.84H10.8V36.4ZM11.6 36.4H12.16V35.84H11.6V36.4ZM12.4 36.4H12.96V35.84H12.4V36.4ZM13.2 36.4H13.76V35.84H13.2V36.4ZM14 36.4H14.56V35.84H14V36.4ZM15.32 36.12C15.1333 36.0667 14.96 36.0133 14.8 35.96V36.4H15.36V36.12H15.32ZM15.6 36.4H16.36V36.28C16.1467 36.2533 15.8933 36.2133 15.6 36.16V36.4ZM7.84 37.2H8.16V36.64C8.10667 36.72 8.05333 36.8133 8 36.92C7.94667 37 7.89333 37.0933 7.84 37.2ZM8.4 37.2H8.96V36.64H8.4V37.2ZM9.2 37.2H9.76V36.64H9.2V37.2ZM10 37.2H10.56V36.64H10V37.2ZM10.8 37.2H11.36V36.64H10.8V37.2ZM11.6 37.2H12.16V36.64H11.6V37.2ZM12.4 37.2H12.96V36.64H12.4V37.2ZM13.2 37.2H13.76V36.64H13.2V37.2ZM14 37.2H14.56V36.64H14V37.2ZM14.8 37.2H15.36V36.64H14.8V37.2ZM7.6 38H8.16V37.44H7.72C7.66667 37.52 7.62667 37.5867 7.6 37.64V38ZM8.4 38H8.96V37.44H8.4V38ZM9.2 38H9.76V37.44H9.2V38ZM10 38H10.56V37.44H10V38ZM10.8 38H11.36V37.44H10.8V38ZM11.6 38H12.16V37.44H11.6V38ZM12.4 38H12.96V37.44H12.4V38ZM13.2 38H13.76V37.44H13.2V38ZM14 38H14.56V37.44H14V38ZM14.8 38H15.36V37.44H14.8V38ZM6.92 38.72C6.89333 38.7467 6.88 38.7733 6.88 38.8H7.36V38.24H7.28C7.17333 38.4 7.05333 38.56 6.92 38.72ZM7.6 38.8H8.16V38.24H7.6V38.8ZM8.4 38.8H8.96V38.24H8.4V38.8ZM9.2 38.8H9.76V38.24H9.2V38.8ZM10 38.8H10.56V38.24H10V38.8ZM10.8 38.8H11.36V38.24H10.8V38.8ZM11.6 38.8H12.16V38.24H11.6V38.8ZM12.4 38.8H12.96V38.24H12.4V38.8ZM13.2 38.8H13.76V38.24H13.2V38.8ZM14 38.8H14.56V38.24H14V38.8ZM14.8 38.8H15.36V38.24H14.8V38.8ZM6.8 39.6H7.36V39.04H6.8V39.6ZM7.6 39.6H8.16V39.04H7.6V39.6ZM8.4 39.6H8.96V39.04H8.4V39.6ZM9.2 39.6H9.76V39.04H9.2V39.6ZM10 39.6H10.56V39.04H10V39.6ZM10.8 39.6H11.36V39.04H10.8V39.6ZM11.6 39.6H12.16V39.04H11.6V39.6ZM12.4 39.6H12.96V39.04H12.4V39.6ZM13.2 39.6H13.76V39.04H13.2V39.6ZM14 39.6H14.56V39.04H14V39.6ZM14.8 39.6H15.36V39.04H14.8V39.6ZM15.6 39.6H16.16V39.04H15.6V39.6ZM7.6 40.4H8.16V39.84H7.6V40.4ZM8.4 40.4H8.96V39.84H8.4V40.4ZM9.2 40.4H9.76V39.84H9.2V40.4ZM10 40.4H10.56V39.84H10V40.4ZM10.8 40.4H11.36V39.84H10.8V40.4ZM11.6 40.4H12.16V39.84H11.6V40.4ZM12.4 40.4H12.96V39.84H12.4V40.4ZM13.2 40.4H13.76V39.84H13.2V40.4ZM14 40.4H14.56V39.84H14V40.4ZM14.8 40.4H15.36V39.84H14.8V40.4ZM15.6 40.4H16.16V39.84H15.6V40.4ZM16.4 40.4H16.96V39.84H16.4V40.4ZM17.2 40.4H17.76V39.84H17.2V40.4ZM8.4 41.2H8.96V40.64H8.4V41.2ZM9.2 41.2H9.76V40.64H9.2V41.2ZM10 41.2H10.56V40.64H10V41.2ZM10.8 41.2H11.36V40.64H10.8V41.2ZM11.6 41.2H12.16V40.64H11.6V41.2ZM12.4 41.2H12.96V40.64H12.4V41.2ZM13.2 41.2H13.76V40.64H13.2V41.2ZM14 41.2H14.56V40.64H14V41.2ZM14.8 41.2H15.36V40.64H14.8V41.2ZM15.6 41.2H16.16V40.64H15.6V41.2ZM16.4 41.2H16.96V40.64H16.4V41.2ZM17.2 41.2H17.76V40.64H17.2V41.2ZM18 41.2H18.56V40.64H18V41.2ZM9.2 42H9.76V41.44H9.2V42ZM10 42H10.56V41.44H10V42ZM10.8 42H11.36V41.44H10.8V42ZM11.6 42H12.16V41.44H11.6V42ZM12.4 42H12.96V41.44H12.4V42ZM13.2 42H13.76V41.44H13.2V42ZM14 42H14.56V41.44H14V42ZM14.8 42H15.36V41.44H14.8V42ZM15.6 42H16.16V41.44H15.6V42ZM16.4 42H16.96V41.44H16.4V42ZM17.2 42H17.76V41.44H17.2V42ZM18 42H18.56V41.44H18V42ZM18.8 42H19.36V41.44H18.8V42ZM19.6 42H20.16V41.44H19.6V42ZM10 42.8H10.56V42.24H10V42.8ZM10.8 42.8H11.36V42.24H10.8V42.8ZM11.6 42.8H12.16V42.24H11.6V42.8ZM12.4 42.8H12.96V42.24H12.4V42.8ZM13.2 42.8H13.76V42.24H13.2V42.8ZM14 42.8H14.56V42.24H14V42.8ZM14.8 42.8H15.36V42.24H14.8V42.8ZM15.6 42.8H16.16V42.24H15.6V42.8ZM16.4 42.8H16.96V42.24H16.4V42.8ZM17.2 42.8H17.76V42.24H17.2V42.8ZM18 42.8H18.56V42.24H18V42.8ZM18.8 42.8H19.36V42.24H18.8V42.8ZM19.6 42.8H19.8C19.9067 42.72 20.0267 42.64 20.16 42.56V42.24H19.6V42.8ZM20.44 42.36C20.4933 42.36 20.5333 42.3467 20.56 42.32C20.6133 42.2933 20.6533 42.2667 20.68 42.24H20.4V42.4L20.44 42.36ZM11.6 43.6H12.16V43.04H11.6V43.6ZM12.4 43.6H12.96V43.04H12.4V43.6ZM13.2 43.6H13.76V43.04H13.2V43.6ZM14 43.6H14.56V43.04H14V43.6ZM15 43.56C15.1067 43.5067 15.2267 43.4667 15.36 43.44V43.04H14.8V43.6C14.9067 43.5733 14.9733 43.56 15 43.56ZM15.6 43.04V43.4C15.7067 43.4 15.8 43.4 15.88 43.4C15.9867 43.3733 16.08 43.36 16.16 43.36V43.04H15.6ZM16.84 43.32C16.84 43.32 16.88 43.32 16.96 43.32V43.04H16.4V43.32C16.48 43.32 16.5467 43.32 16.6 43.32C16.68 43.32 16.76 43.32 16.84 43.32ZM17.4 43.52C17.4 43.5467 17.4267 43.5733 17.48 43.6H17.76V43.04H17.2V43.36C17.2267 43.3867 17.2533 43.4133 17.28 43.44C17.3333 43.4667 17.3733 43.4933 17.4 43.52ZM18 43.6H18.56V43.04H18V43.6ZM19.28 43.2C19.3067 43.1733 19.3333 43.1467 19.36 43.12V43.04H18.8V43.6H19.2V43.56C19.2267 43.5067 19.24 43.4533 19.24 43.4C19.24 43.32 19.2533 43.2533 19.28 43.2ZM12.4 44.4H12.96V43.84H12.4V44.4ZM13.2 44.4H13.76V43.84H13.2V44.4ZM14.4 43.92C14.4 43.92 14.4133 43.8933 14.44 43.84H14V44.4H14.04C14.04 44.3733 14.04 44.36 14.04 44.36C14.0667 44.28 14.12 44.2 14.2 44.12C14.28 44.04 14.3467 43.9733 14.4 43.92ZM17.72 43.84C17.7467 43.92 17.76 44.0133 17.76 44.12C17.76 44.2 17.76 44.2533 17.76 44.28V43.84H17.72ZM18 44.4H18.56V43.84H18V44.4ZM19.16 44C19.1333 43.9733 19.1333 43.92 19.16 43.84H18.8V44.4H19.36V44.12C19.2267 44.0667 19.16 44.0267 19.16 44ZM19.84 44.4C19.8133 44.3733 19.7333 44.32 19.6 44.24V44.4H19.92H19.84ZM20.76 44.4C20.68 44.3733 20.56 44.3733 20.4 44.4H20.76ZM14 45.2C14 45.12 14 45.0267 14 44.92C14.0267 44.7867 14.04 44.6933 14.04 44.64H14V45.2ZM18 45.2H18.56V44.64H18V45.2ZM18.8 45.2H19.36V44.64H18.8V45.2ZM19.6 45.2H20.16V44.64H19.6V45.2ZM20.4 45.2H20.96V44.64H20.4V45.2ZM21.56 44.76C21.5067 44.7333 21.4533 44.72 21.4 44.72C21.3467 44.6933 21.3067 44.6667 21.28 44.64H21.2V45.2H21.76L21.72 45.08C21.6933 45.0533 21.6667 45.0133 21.64 44.96C21.6133 44.88 21.5867 44.8133 21.56 44.76ZM18.08 46H18.56V45.44H18V45.76C18.0267 45.84 18.0533 45.92 18.08 46ZM18.8 46H19.36V45.44H18.8V46ZM19.6 46H20.16V45.44H19.6V46ZM20.4 46H20.96V45.44H20.4V46ZM21.2 46H21.76V45.44H21.2V46ZM22.08 45.92C22.0533 45.84 22.0267 45.7733 22 45.72V46H22.08C22.08 45.9467 22.08 45.92 22.08 45.92ZM18.56 46.8V46.24H18.2C18.2267 46.3467 18.2667 46.4533 18.32 46.56C18.3733 46.64 18.4133 46.72 18.44 46.8H18.56ZM18.8 46.8H19.36V46.24H18.8V46.8ZM19.6 46.8H20.16V46.24H19.6V46.8ZM20.4 46.8H20.96V46.24H20.4V46.8ZM21.2 46.8H21.76V46.24H21.2V46.8ZM22.2 46.32C22.2 46.32 22.1867 46.2933 22.16 46.24H22V46.8H22.56V46.24H22.48C22.4 46.2667 22.3467 46.28 22.32 46.28C22.24 46.3067 22.2 46.32 22.2 46.32ZM18.8 47.6H19.36V47.04H18.8V47.56C18.8 47.6133 18.8 47.6533 18.8 47.68C18.8267 47.68 18.8267 47.6533 18.8 47.6ZM19.6 47.6H20.16V47.04H19.6V47.6ZM20.4 47.6H20.96V47.04H20.4V47.6ZM21.2 47.6H21.76V47.04H21.2V47.6ZM22 47.6H22.56V47.04H22V47.6ZM18.96 48.08C18.96 48.1333 18.9067 48.2267 18.8 48.36V48.4H19.36V47.84H18.88C18.9333 47.9733 18.96 48.0533 18.96 48.08ZM19.6 48.4H20.16V47.84H19.6V48.4ZM20.4 48.4H20.96V47.84H20.4V48.4ZM21.2 48.4H21.76V47.84H21.2V48.4ZM22 48.4H22.56V47.84H22V48.4ZM20.4 49.2H20.96V48.64H20.4V49.2ZM21.2 49.2H21.76V48.64H21.2V49.2ZM22 49.2H22.56V48.64H22V49.2ZM31.6034 48.56C31.5234 48.5333 31.4301 48.5067 31.3234 48.48C31.2434 48.4533 31.1501 48.4267 31.0434 48.4V48.64H31.6034V48.56ZM43.7634 20.08V19.88H43.5234C43.5501 19.9067 43.5768 19.9467 43.6034 20C43.6568 20.0267 43.7101 20.0533 43.7634 20.08ZM44.0834 20.36C44.0834 20.36 44.0834 20.3867 44.0834 20.44H44.5634V19.88H44.0034V20.28C44.0568 20.3067 44.0834 20.3333 44.0834 20.36ZM44.8034 20.44H45.3634V19.88H44.8034V20.44ZM44.0034 21.08C44.0034 21.08 44.0034 21.0933 44.0034 21.12V21.24H44.5634V20.68H44.0434C44.0434 20.7333 44.0434 20.8133 44.0434 20.92C44.0434 21 44.0301 21.0533 44.0034 21.08ZM44.8034 21.24H45.3634V20.68H44.8034V21.24ZM45.6034 21.24H46.1634V20.68H45.6034V21.24ZM46.4034 21.24H46.9634V20.68H46.4034V21.24ZM43.6034 21.24H43.5634H43.7634V21.2C43.6568 21.2267 43.6034 21.24 43.6034 21.24ZM42.4034 22.04H42.9634V21.48H42.8034C42.5901 21.56 42.4568 21.6133 42.4034 21.64V22.04ZM43.2034 22.04H43.7634V21.48H43.2034V22.04ZM44.0034 22.04H44.5634V21.48H44.0034V22.04ZM44.8034 22.04H45.3634V21.48H44.8034V22.04ZM45.6034 22.04H46.1634V21.48H45.6034V22.04ZM46.4034 22.04H46.9634V21.48H46.4034V22.04ZM42.0034 22C42.0034 22.0267 41.9901 22.04 41.9634 22.04H42.1634V21.84C42.1368 21.8667 42.1101 21.8933 42.0834 21.92C42.0568 21.9467 42.0301 21.9733 42.0034 22ZM41.6034 22.84H42.1634V22.28H41.7634C41.7368 22.3067 41.6834 22.36 41.6034 22.44V22.84ZM42.4034 22.84H42.9634V22.28H42.4034V22.84ZM43.2034 22.84H43.7634V22.28H43.2034V22.84ZM44.0034 22.84H44.5634V22.28H44.0034V22.84ZM44.8034 22.84H45.3634V22.28H44.8034V22.84ZM45.6034 22.84H46.1634V22.28H45.6034V22.84ZM41.3634 22.84V22.68C41.2301 22.8133 41.1768 22.8667 41.2034 22.84H41.3634ZM40.8034 23.64H41.3634V23.08H40.9234C40.8968 23.1067 40.8568 23.1467 40.8034 23.2V23.64ZM41.6034 23.64H42.1634V23.08H41.6034V23.64ZM42.4034 23.64H42.9634V23.08H42.4034V23.64ZM43.2034 23.64H43.7634V23.08H43.2034V23.64ZM44.0034 23.64H44.5634V23.08H44.0034V23.64ZM44.8034 23.64H45.3634V23.08H44.8034V23.64ZM45.6034 23.64H46.1634V23.08H45.6034V23.64ZM40.4434 23.48C40.3901 23.5333 40.3368 23.5867 40.2834 23.64H40.5634V23.36L40.4434 23.48ZM40.0034 24.44H40.5634V23.88H40.0834C40.0034 23.96 39.9768 23.9867 40.0034 23.96V24.44ZM40.8034 24.44H41.3634V23.88H40.8034V24.44ZM41.6034 24.44H42.1634V23.88H41.6034V24.44ZM42.4034 24.44H42.9634V23.88H42.4034V24.44ZM43.2034 24.44H43.7634V23.88H43.2034V24.44ZM44.0034 24.44H44.5634V23.88H44.0034V24.44ZM44.8034 24.44H45.3634V23.88H44.8034V24.44ZM39.7634 25.24V24.68H39.7234C39.6701 24.92 39.6434 25.1067 39.6434 25.24H39.7634ZM40.0034 25.24H40.5634V24.68H40.0034V25.24ZM40.8034 25.24H41.3634V24.68H40.8034V25.24ZM41.6034 25.24H42.1634V24.68H41.6034V25.24ZM42.4034 25.24H42.9634V24.68H42.4034V25.24ZM43.2034 25.24H43.7634V24.68H43.2034V25.24ZM44.0034 25.24H44.5634V24.68H44.0034V25.24ZM44.8034 25.24H45.3634V24.68H44.8034V25.24ZM39.6034 25.84C39.5768 25.8933 39.5368 25.96 39.4834 26.04H39.7634V25.48H39.6434C39.6434 25.6667 39.6301 25.7867 39.6034 25.84ZM40.0034 26.04H40.5634V25.48H40.0034V26.04ZM40.8034 26.04H41.3634V25.48H40.8034V26.04ZM41.6034 26.04H42.1634V25.48H41.6034V26.04ZM42.4034 26.04H42.9634V25.48H42.4034V26.04ZM43.2034 26.04H43.7634V25.48H43.2034V26.04ZM44.0034 26.04H44.5634V25.48H44.0034V26.04ZM39.2034 26.84H39.7634V26.28H39.3234C39.2434 26.4133 39.2034 26.4933 39.2034 26.52V26.84ZM40.0034 26.84H40.5634V26.28H40.0034V26.84ZM40.8034 26.84H41.3634V26.28H40.8034V26.84ZM41.6034 26.84H42.1634V26.28H41.6034V26.84ZM42.4034 26.84H42.9634V26.28H42.4034V26.84ZM43.2034 26.84H43.7634V26.28H43.2034V26.84ZM44.0034 26.84H44.5634V26.28H44.0034V26.84ZM38.7634 26.68C38.7101 26.68 38.6434 26.6933 38.5634 26.72C38.5101 26.7467 38.4568 26.7733 38.4034 26.8V26.84H38.9634V26.6C38.9368 26.6267 38.8968 26.64 38.8434 26.64C38.8168 26.64 38.7901 26.6533 38.7634 26.68ZM37.6034 27.64H38.1634V27.08H37.6034V27.64ZM38.4034 27.64H38.9634V27.08H38.4034V27.64ZM39.2034 27.64H39.7634V27.08H39.2034V27.64ZM40.0034 27.64H40.5634V27.08H40.0034V27.64ZM40.8034 27.64H41.3634V27.08H40.8034V27.64ZM41.6034 27.64H42.1634V27.08H41.6034V27.64ZM42.4034 27.64H42.9634V27.08H42.4034V27.64ZM43.2034 27.64H43.7634V27.08H43.2034V27.64ZM37.6034 28.44H38.1634V27.88H37.6034V28.44ZM38.4034 28.44H38.9634V27.88H38.4034V28.44ZM39.2034 28.44H39.7634V27.88H39.2034V28.44ZM40.0034 28.44H40.5634V27.88H40.0034V28.44ZM40.8034 28.44H41.3634V27.88H40.8034V28.44ZM41.6034 28.44H42.1634V27.88H41.6034V28.44ZM42.4034 28.44H42.9634V27.88H42.4034V28.44ZM43.2034 28.44H43.7634V27.88H43.2034V28.44ZM37.6034 30.24H38.1634V28.68H37.6034V30.24ZM38.8034 29.24H38.9634V28.68H38.4034V30.24H38.9634V29.48H38.8034V29.24ZM39.2034 29.24H39.7634V28.68H39.2034V29.24ZM40.0034 29.24H40.5634V28.68H40.0034V29.24ZM40.8034 29.24H41.3634V28.68H40.8034V29.24ZM41.6034 29.24H42.1634V28.68H41.6034V29.24ZM42.4834 29.24V29.44H42.9634V28.68H42.4034V29.24H42.4834ZM43.2034 29.44H43.7634V28.68H43.2034V29.44ZM39.2034 31.04H39.7634V29.48H39.2034V31.04ZM40.0034 30.24H40.5634V29.48H40.0034V30.24ZM40.8034 30.24H41.3634V29.48H40.8034V30.24ZM41.9634 29.68V29.48H41.6034V30.16C41.8168 30.0533 42.0034 29.96 42.1634 29.88V29.68H41.9634ZM42.4834 29.76C42.5101 29.76 42.5634 29.7333 42.6434 29.68H42.4034V29.8L42.4834 29.76ZM40.0034 31.04H40.2034C40.3101 30.96 40.4301 30.8667 40.5634 30.76V30.48H40.0034V31.04ZM40.8034 30.48V30.64C40.8834 30.5867 40.9634 30.5333 41.0434 30.48H40.8034ZM36.8034 31.04H37.3634V30.48H36.8034V31.04ZM37.6034 31.04H38.1634V30.48H37.6034V31.04ZM38.4034 31.04H38.9634V30.48H38.4034V31.04ZM36.0034 31.84H36.5634V31.28H36.0034V31.84ZM36.8034 31.84H37.3634V31.28H36.8034V31.84ZM37.6034 31.84H38.1634V31.28H37.6034V31.84ZM38.4034 31.84H38.9634V31.28H38.4034V31.84ZM39.2034 31.84H39.4834C39.5634 31.7067 39.6568 31.5867 39.7634 31.48V31.28H39.2034V31.84ZM36.0034 32.64H36.5634V32.08H36.0034V32.64ZM36.8034 32.64H37.3634V32.08H36.8034V32.64ZM37.6034 32.64H38.1634V32.08H37.6034V32.64ZM38.4034 32.64H38.9634V32.08H38.4034V32.64ZM39.2034 32.08V32.24C39.2568 32.1867 39.2968 32.1333 39.3234 32.08H39.2034ZM35.2034 33.44H35.7634V32.88H35.2034V33.44ZM36.0034 33.44H36.5634V32.88H36.0034V33.44ZM36.8034 33.44H37.3634V32.88H36.8034V33.44ZM37.6034 33.44H38.1634V32.88H37.6034V33.44ZM38.4034 33.44C38.4834 33.36 38.5501 33.2667 38.6034 33.16C38.6834 33.0267 38.7501 32.9333 38.8034 32.88H38.4034V33.44ZM35.2034 34.24H35.7634V33.68H35.2034V34.24ZM36.0034 34.24H36.5634V33.68H36.0034V34.24ZM36.8034 34.24H37.3634V33.68H36.8034V34.24ZM37.6034 34.24H38.0034C38.0568 34.1333 38.1101 34.0267 38.1634 33.92V33.68H37.6034V34.24ZM34.4034 35.04H34.9634V34.48H34.4034V35.04ZM35.2034 35.04H35.7634V34.48H35.2034V35.04ZM36.0034 35.04H36.5634V34.48H36.0034V35.04ZM36.8034 35.04H37.3634V34.48H36.8034V35.04ZM37.7234 34.8C37.7768 34.6933 37.8301 34.5867 37.8834 34.48H37.6034V35.04H37.6834C37.7101 34.96 37.7234 34.88 37.7234 34.8ZM34.4034 35.84H34.9634V35.28H34.4034V35.84ZM35.7234 35.72H35.7634V35.28H35.2034V35.84H35.3234C35.3768 35.8133 35.4434 35.7867 35.5234 35.76C35.6034 35.7333 35.6701 35.72 35.7234 35.72ZM36.2034 35.76C36.2568 35.76 36.3234 35.76 36.4034 35.76C36.4834 35.76 36.5368 35.7733 36.5634 35.8V35.28H36.0034V35.76C36.1368 35.76 36.2034 35.76 36.2034 35.76ZM36.8034 35.84H37.3634V35.28H36.8034V35.84ZM37.6034 35.44L37.6434 35.28H37.6034V35.44ZM34.4034 36.08C34.4568 36.1333 34.5368 36.1333 34.6434 36.08H34.4034ZM37.0834 36.4C37.1101 36.4533 37.1501 36.5333 37.2034 36.64H37.3634V36.08H36.8034C36.8568 36.1333 36.9101 36.1867 36.9634 36.24C37.0168 36.2933 37.0568 36.3467 37.0834 36.4ZM37.6034 36.64H37.6834C37.6301 36.56 37.6034 36.5067 37.6034 36.48V36.64ZM37.2434 36.88C37.2968 37.0133 37.3368 37.0933 37.3634 37.12V36.88H37.2434ZM37.9634 37C37.9368 36.9733 37.8968 36.9333 37.8434 36.88H37.6034V37.4L37.6434 37.44H38.1634V37.24C38.1368 37.24 38.1101 37.2267 38.0834 37.2C38.0568 37.1733 38.0301 37.1467 38.0034 37.12C37.9768 37.0667 37.9634 37.0267 37.9634 37ZM38.5234 37.32C38.4968 37.32 38.4568 37.32 38.4034 37.32V37.44H38.8034C38.7501 37.4133 38.6968 37.4 38.6434 37.4C38.5901 37.3733 38.5501 37.3467 38.5234 37.32ZM39.3634 37.44H39.7634V37.36C39.6301 37.3867 39.4968 37.4133 39.3634 37.44ZM37.8834 37.68C37.9368 37.7333 37.9768 37.7867 38.0034 37.84C38.0568 37.8667 38.1101 37.9067 38.1634 37.96V37.68H37.8834ZM38.4034 38.24H38.9634V37.68H38.4034V38.24ZM39.2034 38.24H39.7634V37.68H39.2034V38.24ZM36.6434 40.52V40.64H37.2034V40.12H37.2834C37.2034 40.12 37.1234 40.12 37.0434 40.12C36.9634 40.0933 36.8968 40.08 36.8434 40.08H36.0834L35.9634 40.12C35.9368 40.12 35.8968 40.12 35.8434 40.12V40.64H36.4034V40.52H36.6434ZM35.2834 40.52C35.2834 40.5467 35.2701 40.5867 35.2434 40.64H35.6034V40.16C35.5234 40.16 35.4701 40.1733 35.4434 40.2C35.4168 40.2267 35.3901 40.28 35.3634 40.36C35.3368 40.44 35.3101 40.4933 35.2834 40.52ZM35.1234 40.92C35.0968 41 35.0968 41.08 35.1234 41.16C35.1768 41.24 35.2168 41.3333 35.2434 41.44H35.6034V40.88H35.1234V40.92ZM35.8434 41.44H36.4034V40.88H35.8434V41.44ZM36.6434 41.44H37.2034V40.88H36.6434V41.44ZM37.4434 41.44H38.0034V40.88H37.4434V41.44ZM33.0434 41.8C32.9101 41.88 32.7768 41.9467 32.6434 42V42.24H33.3634V41.68H33.2434C33.1901 41.7067 33.1501 41.7333 33.1234 41.76C33.0968 41.76 33.0701 41.7733 33.0434 41.8ZM33.6034 42.24H34.1634V41.68H34.1234H33.6034V42.24ZM35.2834 41.76C35.2834 41.8133 35.2568 41.88 35.2034 41.96C35.1501 42.0133 35.0968 42.0667 35.0434 42.12V42.24H35.6034V41.68H35.2834V41.76ZM35.8434 42.24H36.4034V41.68H35.8434V42.24ZM36.6434 42.24H37.2034V41.68H36.6434V42.24ZM37.4434 42.24H38.0034V41.68H37.4434V42.24ZM34.7234 42.2C34.6168 42.0667 34.5101 41.9467 34.4034 41.84V42.24H34.7634C34.7634 42.2133 34.7501 42.2 34.7234 42.2ZM32.2434 42.2C32.2168 42.2 32.1768 42.2133 32.1234 42.24H32.4034V42.12L32.2434 42.2ZM31.0434 43.04H31.6034V42.48H31.0434V43.04ZM31.8434 43.04H32.4034V42.48H31.8434V43.04ZM33.2034 42.52H33.3634V42.48H32.6434V43.04H33.2034V42.52ZM33.6034 42.72H33.4434V43.04H34.0034V42.76H34.1634V42.48H33.6034V42.72ZM34.4034 42.88H34.2434V43.04H34.8034V42.48H34.4034V42.88ZM35.0434 43.04H35.6034V42.48H35.0434V43.04ZM35.8434 43.04H36.4034V42.48H35.8434V43.04ZM36.6434 43.04H37.2034V42.48H36.6434V43.04ZM37.4434 43.04H38.0034V42.48H37.4434V43.04ZM31.0434 43.84H31.6034V43.28H31.0434V43.84ZM31.8434 43.84H32.4034V43.28H31.8434V43.84ZM32.6434 43.84H33.2034V43.28H32.6434V43.84ZM33.4434 43.84H34.0034V43.28H33.4434V43.84ZM34.2434 43.84H34.8034V43.28H34.2434V43.84ZM35.0434 43.84H35.6034V43.28H35.0434V43.84ZM35.8434 43.84H36.4034V43.28H35.8434V43.84ZM36.6434 43.84H37.2034V43.28H36.6434V43.84ZM31.0434 44.64H31.6034V44.08H31.0434V44.64ZM31.8434 44.64H32.4034V44.08H31.8434V44.64ZM32.6434 44.64H33.2034V44.08H32.6434V44.64ZM34.2434 44.6H34.0034V44.08H33.4434V44.64H34.8034V44.52H35.0434V44.64H35.6034V44.08H35.0434V44.36H34.8034V44.08H34.2434V44.6ZM35.8434 44.64H36.4034V44.08H35.8434V44.64ZM36.6434 44.64H37.2034V44.08H36.6434V44.64ZM30.2434 45.44H30.8034V44.88H30.2434V45.44ZM31.8434 45.16H31.6034V44.88H31.0434V45.44H32.4034V45H32.6434V45.44H33.2034V44.88H32.6434V44.92H32.4034V44.88H31.8434V45.16ZM33.4434 45.44H34.0034V44.88H33.4434V45.44ZM34.2434 45.44H34.8034V44.88H34.2434V45.44ZM35.0434 45.44H35.6034V44.88H35.0434V45.44ZM35.8434 45.44H36.4034V44.88H35.8434V45.44ZM36.6434 45.44H37.2034V44.88H36.6434V45.44ZM31.0434 45.96H30.8034V45.68H30.2434V46.24H30.4834C30.8568 46.1067 31.2301 46.0533 31.6034 46.08V45.68H31.0434V45.96ZM31.8434 46.08C32.1368 46.1333 32.3234 46.1867 32.4034 46.24V45.68H31.8434V46.08ZM32.6434 46.24H33.2034V45.68H32.6434V46.24ZM33.4434 46.24H34.0034V45.68H33.4434V46.24ZM34.2434 46.24H34.8034V45.68H34.2434V46.24ZM35.0434 46.24H35.6034V45.68H35.0434V46.24ZM35.8434 46.24H36.4034V45.68H35.8434V46.24ZM32.8434 46.48C32.9768 46.56 33.0968 46.6533 33.2034 46.76V46.48H32.8434ZM33.4434 47.04H34.0034V46.48H33.4434V47.04ZM34.2434 47.04H34.8034V46.48H34.2434V47.04ZM35.0434 47.04H35.6034V46.48H35.0434V47.04ZM35.8434 47.04H36.4034V46.48H35.8434V47.04ZM33.9634 47.64L34.0034 47.68V47.28H33.6434C33.6968 47.3333 33.7501 47.4 33.8034 47.48C33.8568 47.5333 33.9101 47.5867 33.9634 47.64ZM34.2434 47.84H34.8034V47.28H34.2434V47.84ZM35.0434 47.84H35.6034V47.28H35.0434V47.84ZM34.6434 48.52C34.6701 48.52 34.6968 48.56 34.7234 48.64H34.8034V48.08H34.3234C34.4568 48.2133 34.5634 48.36 34.6434 48.52ZM35.0434 48.64H35.6034V48.08H35.0434V48.64ZM28.6434 48.88V49C28.7234 48.9467 28.7901 48.9067 28.8434 48.88H28.6434ZM30.3634 48.88C30.5234 48.96 30.6701 49.0533 30.8034 49.16V48.88H30.3634ZM31.1634 49.44H31.6034V48.88H31.0434V49.32C31.0968 49.3467 31.1368 49.3867 31.1634 49.44ZM32.1634 48.92C32.1368 48.8933 32.1234 48.88 32.1234 48.88H31.8434V49.44H32.4034V49.08C32.3501 49.0533 32.2968 49.0267 32.2434 49C32.2168 48.9733 32.1901 48.9467 32.1634 48.92ZM35.0434 49.44H35.6034V48.88H35.0434V49.44ZM31.4034 49.68C31.4834 49.76 31.5501 49.84 31.6034 49.92V49.68H31.4034ZM31.8434 50.24H32.4034V49.68H31.8434V50.24ZM32.8034 49.92C32.8034 49.8667 32.7768 49.7867 32.7234 49.68H32.6434V50.24H32.8034C32.8301 50.1067 32.8301 50 32.8034 49.92ZM34.8034 50.24V49.76C34.7768 49.92 34.7368 50.08 34.6834 50.24H34.8034ZM32.1634 51.04H32.4034V50.48H31.9234C32.0034 50.6667 32.0834 50.8533 32.1634 51.04ZM32.7634 50.48H32.6434V51.04H32.6834C32.7101 50.8267 32.7368 50.64 32.7634 50.48ZM34.4434 51.04H34.8034V50.48H34.6034C34.5768 50.5867 34.5501 50.6933 34.5234 50.8C34.4968 50.88 34.4701 50.96 34.4434 51.04ZM32.4034 51.84V51.28H32.2034C32.2568 51.4667 32.2834 51.6533 32.2834 51.84H32.4034ZM32.2834 52.32C32.2834 52.3733 32.2834 52.4267 32.2834 52.48C32.2834 52.5333 32.2834 52.5867 32.2834 52.64H32.4034V52.08H32.2834C32.2834 52.1867 32.2834 52.2667 32.2834 52.32ZM34.0034 52.64V52.6L33.9634 52.64H34.0034ZM31.8434 53.44H32.4034V52.88H32.2434C32.1901 52.9867 32.1101 53.0933 32.0034 53.2C31.9234 53.3067 31.8701 53.3867 31.8434 53.44ZM32.6434 53.44H32.7634C32.6834 53.4133 32.6434 53.4 32.6434 53.4V53.44ZM30.4034 54.2C30.3768 54.2267 30.3501 54.24 30.3234 54.24H30.8034V54.12C30.7501 54.1467 30.6834 54.16 30.6034 54.16C30.5501 54.1867 30.4834 54.2 30.4034 54.2ZM46.1634 19.88H45.6034V20.44H46.1634V19.88ZM29.6434 47C29.6968 46.92 29.7501 46.8267 29.8034 46.72C29.8834 46.5867 29.9368 46.5067 29.9634 46.48H29.4834V46.24H30.0034V45.68H29.8034V45.44H30.0034V44.28H30.2434V44.64H30.8034V44.08H30.3634V43.84H30.8034V43.28H30.6034V43.04H30.8034V42.36H30.8434V42.24H31.6034V41.84C31.5501 41.76 31.5234 41.7067 31.5234 41.68H31.1634V41.44H31.4834C31.5101 41.3867 31.5234 41.3467 31.5234 41.32C31.5501 41.2667 31.5634 41.2133 31.5634 41.16C31.5634 41.08 31.5768 41 31.6034 40.92V40.88H31.4034V40.64H31.6834C31.7101 40.5333 31.7368 40.4267 31.7634 40.32C31.8168 40.2133 31.8434 40.1333 31.8434 40.08H31.7234V39.84H31.9634C31.9901 39.76 32.0168 39.68 32.0434 39.6C32.0701 39.4933 32.1101 39.3867 32.1634 39.28H32.1234V39.04H32.2434C32.3501 38.7733 32.4568 38.5067 32.5634 38.24C32.6968 37.9733 32.8434 37.72 33.0034 37.48V37.44H33.0434C33.1768 37.2267 33.2834 37.08 33.3634 37V36.88H33.2434V36.64H33.7234C33.8568 36.5333 34.0034 36.4267 34.1634 36.32V36.08H33.5634V35.84H34.1634V35.28H33.8834V35.04H34.1634V34.24H34.9634V33.68H34.6834V33.44H34.9634V32.32H35.2034V32.64H35.7634V32.08H35.5634V31.84H35.7634V30.4H36.0034V31.04H36.5634V30.48H36.2834V30.24H36.5634V28.32H36.8034V29.44H37.0034V29.68H36.8034V30.24H37.3634V28.68H37.1234V28.44H37.3634V27.88H37.0434V27.64H37.3634V26.56H37.6034V26.84H38.1634V26.72C38.1101 26.6667 38.0568 26.6133 38.0034 26.56C37.9501 26.5067 37.9101 26.4667 37.8834 26.44C37.8034 26.4133 37.7634 26.4 37.7634 26.4C37.7634 26.3733 37.7634 26.3333 37.7634 26.28H37.6834V26.04H37.8034C37.8301 25.9333 37.8434 25.84 37.8434 25.76C37.8701 25.6533 37.8968 25.5467 37.9234 25.44C37.9501 25.3867 37.9768 25.3333 38.0034 25.28V25.24C38.0568 25.1333 38.1101 25.0133 38.1634 24.88V24.56H38.2834L38.3234 24.48V24.44C38.3768 24.3333 38.4168 24.24 38.4434 24.16C38.4968 24.0533 38.5368 23.9467 38.5634 23.84V23.64H38.6434C38.7234 23.4 38.8034 23.2 38.8834 23.04V22.84H38.9634V22.64H39.0434C39.1501 22.4 39.2568 22.16 39.3634 21.92C39.4968 21.68 39.6301 21.4667 39.7634 21.28V21.12H39.8834C39.9368 21.04 39.9901 20.96 40.0434 20.88C40.0968 20.8 40.1634 20.72 40.2434 20.64C40.2701 20.6133 40.2968 20.5867 40.3234 20.56V20.44H40.4434L40.5634 20.36V20.24H40.7234C40.9368 20.1067 41.1501 20 41.3634 19.92V19.84H41.5634L41.6834 19.8V19.64H46.1634V19.84H46.4034V20.44H47.1234V20.64H47.2034V22.16H47.1234V22.28H46.4034V22.84H46.8034V23.08H46.4034V23.64H46.4834V23.88H46.4034V24.08H46.1634V23.88H45.6034V24.44H46.1634V24.68H45.6034V25.24H45.8434V25.48H45.6034V25.68H45.3634V25.48H44.8034V26.04H45.4434V26.28H44.8034V26.84H45.1234V27.08H44.8034V27.6H44.5634V27.08H44.0034V27.64H44.6434V27.88H44.0034V29.84H43.7634V29.68H43.2034V29.84C43.2568 29.8667 43.3101 29.9067 43.3634 29.96C43.4168 30.0133 43.4568 30.0533 43.4834 30.08C43.5101 30.1067 43.5101 30.16 43.4834 30.24H43.7234V30.48H43.4834C43.4834 30.6667 43.4834 30.8 43.4834 30.88C43.4568 30.96 43.4301 31.0533 43.4034 31.16V31.28H43.3634C43.3368 31.3333 43.3234 31.3733 43.3234 31.4C43.2701 31.5067 43.2301 31.6 43.2034 31.68V31.84H43.1634C43.1368 31.8933 43.1101 31.9467 43.0834 32V32.08H43.0434C43.0168 32.1867 42.9768 32.2933 42.9234 32.4C42.8701 32.48 42.8301 32.5733 42.8034 32.68L42.7634 32.76V32.88H42.7234C42.6701 32.9867 42.6168 33.0933 42.5634 33.2C42.5368 33.3067 42.4968 33.4133 42.4434 33.52V33.68H42.4034V33.76H42.3634C42.2568 34.0267 42.1368 34.2933 42.0034 34.56C41.8968 34.8267 41.7901 35.08 41.6834 35.32C41.6568 35.3733 41.6301 35.4267 41.6034 35.48V35.76H41.4434C41.3634 35.92 41.2701 36.08 41.1634 36.24C41.0834 36.4 40.9768 36.5467 40.8434 36.68V36.88H40.8034V37.68H40.5634V36.92L40.5234 36.96C40.3634 37.0667 40.1901 37.16 40.0034 37.24V37.44H40.5234V37.68H40.0034V38.24H40.2034V38.48H40.0034V38.72H39.7634V38.48H39.2034V39.04H38.9634V38.48H38.5234C38.5768 38.56 38.6301 38.6533 38.6834 38.76C38.7368 38.84 38.7501 38.92 38.7234 39C38.7234 39 38.7234 39.0133 38.7234 39.04H39.8834V39.28H38.7234C38.7234 39.4933 38.6968 39.6267 38.6434 39.68C38.6434 39.7333 38.5768 39.7867 38.4434 39.84H39.5634V40.08H38.1234C38.0434 40.1067 37.9901 40.1333 37.9634 40.16C37.8834 40.1867 37.7901 40.1867 37.6834 40.16C37.6034 40.1333 37.5234 40.12 37.4434 40.12V40.64H38.0034V40.2H38.2434V40.64H39.2434V40.88H38.2434V41.44H38.8034V41.08H39.0434V41.56H39.0034V41.68H38.2434V42.24H38.6834V42.48H38.2434V43.04H38.3634V43.28H38.2434V43.8H38.0034V43.28H37.4434V43.84H38.1234V44.08H37.4434V44.64H37.8034V44.88H37.4434V45.44H37.4834V45.68H36.6434V46.24H37.1634V46.48H36.6434V47.04H36.8434V47.28H36.6434V47.8H36.4034V47.28H35.8434V47.84H36.5234V48.08H35.8434V48.64H36.2034V48.88H35.8434V49.44H35.8834V49.68H35.0434V50.24H35.5634V50.48H35.0434V51.04H35.0834V51.28H35.0434V51.4H34.8034V51.28H34.3634C34.3368 51.36 34.3101 51.44 34.2834 51.52C34.2834 51.6267 34.2701 51.72 34.2434 51.8V51.84H34.6834V52.08H34.2434V52.64H34.3634V52.88H34.2434V52.92H34.0034V52.88H33.8834C33.8034 53.0133 33.7234 53.1333 33.6434 53.24C33.6168 53.24 33.5901 53.2533 33.5634 53.28C33.5368 53.3333 33.4968 53.3867 33.4434 53.44H33.8034V53.68H32.6434V54.04H32.4034V53.68H31.8434V54.2H31.6034V53.68C31.4968 53.7333 31.4034 53.8 31.3234 53.88C31.2434 53.96 31.1501 54.0133 31.0434 54.04V54.24H31.6434V54.48H29.6434V54.32C29.2968 54.32 28.9501 54.28 28.6034 54.2H28.4034V54.16C28.2968 54.1067 28.2034 54.0667 28.1234 54.04C28.0434 54.0133 27.9634 53.9867 27.8834 53.96C27.8034 53.9333 27.7501 53.9067 27.7234 53.88H27.6034V53.8C27.5768 53.7733 27.5501 53.7333 27.5234 53.68H26.9234V53.44H27.3234C27.2968 53.3867 27.2568 53.3333 27.2034 53.28C27.1501 53.2267 27.1101 53.1733 27.0834 53.12C27.0834 53.0933 27.0701 53.0133 27.0434 52.88H26.7634V52.64H27.0434C27.0168 52.3733 27.0168 52.1867 27.0434 52.08H27.0034V51.84H27.0834C27.1634 51.5733 27.2434 51.3067 27.3234 51.04C27.4034 50.8 27.4968 50.5867 27.6034 50.4V50.04H27.8034C27.8834 49.88 27.9634 49.76 28.0434 49.68H27.9634V49.44H28.2034C28.2834 49.3333 28.3501 49.2533 28.4034 49.2V48.88H28.2834V48.64H29.2034V48.44H29.4434V48.64H30.0034V48.44H30.2434V48.64H30.8034V48.32L30.6434 48.28C30.5901 48.28 30.5234 48.28 30.4434 48.28C30.3634 48.2533 30.2968 48.2267 30.2434 48.2H30.0034V48.08H28.6034V47.84H29.8034C29.7234 47.76 29.6701 47.7067 29.6434 47.68C29.6434 47.6533 29.6168 47.6267 29.5634 47.6C29.5368 47.5733 29.5234 47.5467 29.5234 47.52C29.4968 47.4667 29.4968 47.3867 29.5234 47.28H29.0834V47.04H29.6034L29.6434 47ZM58.8875 37.12H63.0075C63.1942 37.0133 63.4208 36.8933 63.6875 36.76V36.56H62.9675L62.9275 36.6C62.8475 36.6267 62.7542 36.6533 62.6475 36.68C62.5675 36.68 62.4742 36.6933 62.3675 36.72C62.3408 36.72 62.2875 36.7333 62.2075 36.76C62.1542 36.76 62.1008 36.76 62.0475 36.76C61.9942 36.76 61.9142 36.7467 61.8075 36.72C61.7275 36.6667 61.6608 36.6267 61.6075 36.6C61.5808 36.6 61.5542 36.6 61.5275 36.6C61.5008 36.5733 61.4742 36.56 61.4475 36.56H59.6875V36.96H59.4475V36.56H58.8875V37.12ZM51.6875 26.72H52.2475V26.16H51.6875V26.72ZM52.4875 26.72H53.0475V26.16H52.4875V26.72ZM53.2875 26.72H53.8475V26.16H53.2875V26.72ZM51.6875 27.52H52.2475V26.96H51.6875V27.52ZM52.4875 27.52H53.0475V26.96H52.4875V27.52ZM53.2875 27.52H53.8475V26.96H53.2875V27.52ZM54.0875 27.52H54.6475V26.96H54.0875V27.52ZM51.6875 28.32H52.2475V27.76H51.6875V28.32ZM52.4875 28.32H53.0475V27.76H52.4875V28.32ZM53.2875 28.32H53.8475V27.76H53.2875V28.32ZM54.0875 28.32H54.6475V27.76H54.0875V28.32ZM54.8875 28.32H55.4475V27.76H54.8875V28.32ZM55.6875 28.32H56.2475V27.76H55.6875V28.32ZM51.6875 29.12H52.2475V28.56H51.6875V29.12ZM52.4875 29.12H53.0475V28.56H52.4875V29.12ZM53.2875 29.12H53.8475V28.56H53.2875V29.12ZM54.0875 29.12H54.6475V28.56H54.0875V29.12ZM54.8875 29.12H55.4475V28.56H54.8875V29.12ZM55.6875 29.12H56.2475V28.56H55.6875V29.12ZM56.4875 29.12H57.0475V28.56H56.4875V29.12ZM51.6875 29.92H52.2475V29.36H51.6875V29.92ZM52.4875 29.92H53.0475V29.36H52.4875V29.92ZM53.2875 29.92H53.8475V29.36H53.2875V29.92ZM54.0875 29.92H54.6475V29.36H54.0875V29.92ZM54.8875 29.92H55.4475V29.36H54.8875V29.92ZM55.6875 29.36V29.92C55.8742 29.8667 56.0608 29.8533 56.2475 29.88V29.36H55.6875ZM56.6475 29.92H57.0475V29.36H56.4875V29.88C56.5408 29.88 56.5808 29.8933 56.6075 29.92C56.6608 29.92 56.6742 29.92 56.6475 29.92ZM57.2875 29.92H57.8475V29.36H57.2875V29.92ZM59.4075 30.16H59.1675V29.92H59.4075V30.16ZM51.6875 30.72H52.2475V30.16H51.6875V30.72ZM52.4875 30.72H53.0475V30.16H52.4875V30.72ZM53.2875 30.72H53.8475V30.16H53.2875V30.72ZM54.0875 30.72H54.6475V30.16H54.0875V30.72ZM54.8875 30.16V30.24C54.9142 30.2133 54.9675 30.1867 55.0475 30.16H54.8875ZM57.6075 30.64V30.72H57.8475V30.16H57.3275C57.4075 30.24 57.5008 30.4 57.6075 30.64ZM58.8875 31.52H59.4475V30.96H58.8875V31.52ZM59.9675 31.08C59.9942 31.0533 60.0342 31.0133 60.0875 30.96H59.6875V31.44C59.7942 31.3067 59.8875 31.1867 59.9675 31.08ZM51.6875 31.52H52.2475V30.96H51.6875V31.52ZM53.2875 31.28H53.0475V30.96H52.4875V31.52H54.5275C54.5275 31.3067 54.5408 31.1467 54.5675 31.04C54.5675 31.0133 54.5675 30.9867 54.5675 30.96H54.0875V31.12H53.8475V30.96H53.2875V31.28ZM57.6475 31.44C57.6475 31.4667 57.6475 31.4933 57.6475 31.52H57.8475V30.96H57.6475C57.6742 31.1733 57.6742 31.3333 57.6475 31.44ZM58.6475 32.32V31.76H58.0875V32.32H58.6475ZM59.1675 32.16C59.2475 32.08 59.3408 31.96 59.4475 31.8V31.76H58.8875V32.32H59.0475C59.1008 32.24 59.1408 32.1867 59.1675 32.16ZM57.4875 31.84C57.4342 31.9467 57.3675 32.0667 57.2875 32.2V32.32H57.8475V31.76H57.5275C57.5008 31.7867 57.4875 31.8133 57.4875 31.84ZM58.0875 33.12H58.6475V32.56H58.0875V33.12ZM57.8475 33.12V32.56H57.2875V33.12H57.8475ZM56.6475 33.04C56.6208 33.0667 56.5942 33.0933 56.5675 33.12H57.0475V32.56C56.9408 32.72 56.8075 32.88 56.6475 33.04ZM56.4875 33.36V33.92H57.0475V33.36H56.4875ZM57.2875 33.92H57.8475V33.36H57.2875V33.92ZM58.0875 33.92H58.6475V33.36H58.0875V33.92ZM54.0875 33.4V33.36V33.4ZM56.1675 33.56C56.1142 33.64 56.0475 33.76 55.9675 33.92H56.2475V33.44C56.2208 33.4667 56.1942 33.5067 56.1675 33.56ZM59.0075 33.68C59.0075 33.68 58.9675 33.6667 58.8875 33.64V33.92H59.4475V33.8C59.3142 33.7733 59.1675 33.7333 59.0075 33.68ZM59.7275 33.84H59.6875V33.92H60.2475V33.84C60.1675 33.8133 60.0742 33.8133 59.9675 33.84C59.8875 33.84 59.8075 33.84 59.7275 33.84ZM55.8475 34.32C55.8475 34.4 55.8475 34.5333 55.8475 34.72H56.2475V34.16H55.8875L55.8475 34.32ZM56.4875 34.72H57.0475V34.16H56.4875V34.72ZM57.2875 34.72H57.8475V34.16H57.2875V34.72ZM58.0875 34.72H58.6475V34.16H58.0875V34.72ZM58.8875 34.72H59.4475V34.16H58.8875V34.72ZM59.6875 34.72H60.2475V34.16H59.6875V34.72ZM60.7675 34.44C60.7408 34.3867 60.7008 34.3333 60.6475 34.28C60.5942 34.2267 60.5542 34.1867 60.5275 34.16H60.4875V34.72H60.8075C60.8075 34.6133 60.7942 34.52 60.7675 34.44ZM55.8875 35.2C55.8875 35.2267 55.8208 35.2667 55.6875 35.32V35.52H56.2475V34.96H55.8875C55.8875 35.0133 55.8875 35.0533 55.8875 35.08C55.9142 35.1067 55.9142 35.1467 55.8875 35.2ZM56.4875 35.52H57.0475V34.96H56.4875V35.52ZM57.2875 35.52H57.8475V34.96H57.2875V35.52ZM58.0875 35.52H58.6475V34.96H58.0875V35.52ZM58.8875 35.52H59.4475V34.96H58.8875V35.52ZM59.6875 35.52H60.2475V34.96H59.6875V35.52ZM60.8475 35.24C60.8475 35.1867 60.8475 35.0933 60.8475 34.96H60.4875V35.52H60.8875C60.8875 35.4667 60.8742 35.3733 60.8475 35.24ZM65.6075 35.08C65.6075 35.1333 65.5808 35.24 65.5275 35.4V35.52H66.0875V34.96H65.5675C65.5942 35.0133 65.6075 35.0533 65.6075 35.08ZM57.2875 36.32H57.8475V35.76H57.2875V36.32ZM58.0875 36.32H58.6475V35.76H58.0875V36.32ZM58.8875 36.32H59.4475V35.76H58.8875V36.32ZM60.4875 36.32H60.2475V35.76H59.6875V36.32H61.1675C61.1408 36.2667 61.1142 36.2133 61.0875 36.16C61.0608 36.08 61.0342 36.0133 61.0075 35.96C60.9808 35.9067 60.9542 35.84 60.9275 35.76H60.4875V36.32ZM65.5275 35.76V35.92C65.6342 35.8667 65.7408 35.8133 65.8475 35.76H65.5275ZM64.9675 35.96C64.8875 35.9867 64.8075 36 64.7275 36V36.32H64.7675C64.8475 36.2933 64.9275 36.2533 65.0075 36.2C65.1142 36.1467 65.2075 36.1067 65.2875 36.08V35.92C65.2342 35.92 65.1675 35.9333 65.0875 35.96C65.0342 35.96 64.9942 35.96 64.9675 35.96ZM63.9275 36.2V36.32H64.4875V36.04C64.3542 36.0667 64.2208 36.0933 64.0875 36.12C63.9542 36.1467 63.8342 36.1733 63.7275 36.2H63.9275ZM63.4475 36.32H63.6875V36.2C63.6075 36.2267 63.5275 36.2667 63.4475 36.32ZM63.9275 36.56C63.9808 36.6133 64.0608 36.6133 64.1675 36.56H63.9275ZM59.9275 38.72H60.4875V38.16H59.9275V38.72ZM60.7275 38.72H61.2875V38.16H60.7275V38.72ZM61.9275 38.36C61.9275 38.3333 61.9542 38.2667 62.0075 38.16H61.5275V38.72H61.8075C61.8075 38.6667 61.8208 38.6133 61.8475 38.56C61.9008 38.48 61.9275 38.4133 61.9275 38.36ZM58.3275 39.52H58.8875V38.96H58.3275V39.52ZM59.1275 39.52H59.6875V38.96H59.1275V39.52ZM59.9275 39.52H60.4875V38.96H59.9275V39.52ZM60.7275 39.52H61.2875V38.96H60.7275V39.52ZM61.5275 39.52H61.9275C61.9008 39.4133 61.8608 39.3067 61.8075 39.2C61.7808 39.0667 61.7808 38.9867 61.8075 38.96H61.5275V39.52ZM56.8475 40.12C56.9008 40.0933 56.9675 40.0933 57.0475 40.12C57.1542 40.1467 57.2342 40.16 57.2875 40.16V39.76H56.7275V40.16C56.7542 40.1333 56.7942 40.12 56.8475 40.12ZM57.7275 40.24C57.7808 40.24 57.8342 40.2667 57.8875 40.32H58.0875V39.76H57.5275V40.2C57.6075 40.2 57.6742 40.2133 57.7275 40.24ZM58.3275 40.32H58.8875V39.76H58.3275V40.32ZM59.1275 40.32H59.6875V39.76H59.1275V40.32ZM59.9275 40.32H60.4875V39.76H59.9275V40.32ZM60.7275 40.32H61.2875V39.76H60.7275V40.32ZM61.5275 40.32H62.0875V39.96C62.0342 39.88 61.9942 39.8133 61.9675 39.76H61.5275V40.32ZM58.3275 40.64C58.4075 40.6933 58.4875 40.76 58.5675 40.84C58.6742 40.8933 58.7808 40.96 58.8875 41.04V40.56H58.3275V40.64ZM59.1275 41.12H59.6875V40.56H59.1275V41.12ZM59.9275 41.12H60.4875V40.56H59.9275V41.12ZM60.7275 41.12H61.2875V40.56H60.7275V41.12ZM61.5275 41.12H62.0875V40.56H61.5275V41.12ZM62.3275 41.12H62.8875V41C62.7542 40.8667 62.6208 40.72 62.4875 40.56H62.3275V41.12ZM59.3675 41.36C59.4742 41.4133 59.5808 41.4667 59.6875 41.52V41.36H59.3675ZM59.9675 41.6C60.1275 41.6267 60.3008 41.64 60.4875 41.64V41.36H59.9275V41.6H59.9675ZM60.7275 41.36V41.64C60.8875 41.64 61.0742 41.6133 61.2875 41.56V41.36H60.7275ZM62.0475 41.44C62.0742 41.44 62.0875 41.44 62.0875 41.44V41.36H61.5275V41.52C61.7408 41.4667 61.9142 41.44 62.0475 41.44ZM62.5675 41.36C62.6475 41.3867 62.7542 41.4267 62.8875 41.48V41.36H62.3275V41.4C62.4342 41.3733 62.5142 41.36 62.5675 41.36ZM63.3275 41.72C63.3542 41.7467 63.3942 41.8133 63.4475 41.92H63.6875V41.6C63.5542 41.52 63.4342 41.44 63.3275 41.36H63.1275V41.6C63.1542 41.6267 63.1808 41.6533 63.2075 41.68C63.2608 41.68 63.3008 41.6933 63.3275 41.72ZM64.1275 41.8C64.0475 41.7733 63.9808 41.7467 63.9275 41.72V41.92H64.3275C64.1942 41.8667 64.1275 41.8267 64.1275 41.8ZM54.5275 42.68L54.5675 42.72H54.8075C54.8075 42.6667 54.8075 42.6267 54.8075 42.6C54.8342 42.5467 54.8475 42.5067 54.8475 42.48C54.8475 42.4267 54.8475 42.3733 54.8475 42.32C54.8475 42.2667 54.8608 42.2133 54.8875 42.16H53.7675C53.8475 42.2133 53.9008 42.24 53.9275 42.24C53.9808 42.2667 54.0342 42.2933 54.0875 42.32C54.1408 42.32 54.1942 42.3333 54.2475 42.36C54.3008 42.4133 54.3542 42.4667 54.4075 42.52C54.4608 42.5733 54.5008 42.6267 54.5275 42.68ZM63.6875 42.44C63.6875 42.4667 63.6608 42.56 63.6075 42.72H63.6875V42.16H63.5275C63.5542 42.2133 63.5808 42.2667 63.6075 42.32C63.6608 42.3733 63.6875 42.4133 63.6875 42.44ZM63.9275 42.72H64.4875V42.16H63.9275V42.72ZM54.8075 42.96C54.8875 43.0667 54.9542 43.16 55.0075 43.24C54.9808 43.1867 54.9542 43.1467 54.9275 43.12C54.9008 43.0667 54.8742 43.0133 54.8475 42.96H54.8075ZM55.4875 45.12C55.4875 44.8267 55.4875 44.68 55.4875 44.68C55.5142 44.68 55.5408 44.7067 55.5675 44.76C55.5408 44.8933 55.5142 45.0133 55.4875 45.12ZM55.1675 45.92H55.6875V45.48C55.6875 45.4533 55.6742 45.4133 55.6475 45.36H55.4075C55.3275 45.5733 55.2475 45.76 55.1675 45.92ZM55.1275 46.72H55.6875V46.16H55.1275V46.72ZM54.8875 46.72V46.48C54.8608 46.56 54.8342 46.64 54.8075 46.72H54.8875ZM54.8875 47.52V46.96H54.7675C54.7675 47.0667 54.7675 47.1733 54.7675 47.28C54.7675 47.3867 54.7675 47.4667 54.7675 47.52H54.8875ZM55.1275 47.52H55.6875V46.96H55.1275V47.52ZM54.8075 47.76C54.8075 47.84 54.8208 47.9333 54.8475 48.04C54.8742 48.12 54.8875 48.2 54.8875 48.28V47.76H54.8075ZM55.1275 48.32H55.6875V47.76H55.1275V48.32ZM54.6475 49.08C54.6208 49.1067 54.6075 49.12 54.6075 49.12H54.8875V48.56C54.8608 48.64 54.8208 48.7333 54.7675 48.84C54.7142 48.92 54.6742 49 54.6475 49.08ZM52.7275 50.2H52.6875L52.4875 50.24C52.4608 50.2667 52.4075 50.2933 52.3275 50.32C52.2742 50.3467 52.2208 50.36 52.1675 50.36C52.0875 50.36 51.9942 50.3333 51.8875 50.28C51.8075 50.2267 51.7275 50.2 51.6475 50.2C51.5942 50.1733 51.5408 50.16 51.4875 50.16C51.4608 50.16 51.4342 50.1467 51.4075 50.12C51.3808 50.0933 51.3542 50.0667 51.3275 50.04C51.3275 49.9867 51.3275 49.9467 51.3275 49.92C51.2742 49.84 51.2075 49.7467 51.1275 49.64C51.0475 49.5333 50.9942 49.44 50.9675 49.36C50.9408 49.28 50.9275 49.2133 50.9275 49.16C50.9275 49.08 50.9275 49 50.9275 48.92C50.8475 48.52 50.8075 48.0667 50.8075 47.56C50.8075 47.2133 50.7942 46.8267 50.7675 46.4C50.7675 45.9733 50.7942 45.5467 50.8475 45.12C50.9275 44.4267 51.0608 43.92 51.2475 43.6V43.52H51.2875L51.3275 43.44C51.4608 43.2267 51.6208 43.0267 51.8075 42.84V42.72H51.9275C52.0075 42.64 52.1008 42.56 52.2075 42.48C52.2608 42.4533 52.3142 42.4133 52.3675 42.36C52.4208 42.3067 52.4875 42.2667 52.5675 42.24C52.6208 42.2133 52.7008 42.1867 52.8075 42.16H52.6875V41.92H54.9275C54.9542 41.8667 54.9808 41.8267 55.0075 41.8C55.0608 41.7467 55.1142 41.7067 55.1675 41.68C55.1942 41.6267 55.2342 41.5733 55.2875 41.52C55.3408 41.4667 55.3808 41.4133 55.4075 41.36H53.8875V41.12H55.6475L55.6875 41.08C55.7675 40.9733 55.8475 40.8667 55.9275 40.76C56.0342 40.6533 56.1142 40.5867 56.1675 40.56H55.1675V40.32H56.4875V39.64H56.5275V39.52H57.2875V39.16H57.5275V39.52H58.0875V38.96H58.0475V38.72H58.8875V38.52H59.1275V38.72H59.6875V38.16H58.5275V37.92H60.4875V37.72H60.7275V37.92H61.2875V37.64H61.5275V37.92H62.0875C62.1408 37.84 62.1942 37.7733 62.2475 37.72C62.3275 37.6667 62.3942 37.6133 62.4475 37.56C62.5275 37.48 62.6075 37.4133 62.6875 37.36H58.2075V37.12H58.6475V36.56H58.0875V36.88H57.8475V36.56H56.8475V36.32H57.0475V35.76H56.4875V36.16H56.2475V35.76H55.4875V35.68H55.4475V35.44L55.4075 35.48C55.3808 35.48 55.3275 35.4533 55.2475 35.4C55.1942 35.3467 55.1408 35.32 55.0875 35.32C55.0608 35.2933 55.0208 35.28 54.9675 35.28C54.9408 35.2533 54.9008 35.2267 54.8475 35.2H54.6475V35.08C54.5942 35.0267 54.5408 34.96 54.4875 34.88C54.4342 34.8 54.3808 34.72 54.3275 34.64C54.3008 34.6133 54.2608 34.5733 54.2075 34.52C54.1542 34.4667 54.1275 34.4267 54.1275 34.4C54.1008 34.3467 54.0875 34.28 54.0875 34.2C54.0875 34.12 54.0875 34.0667 54.0875 34.04V34.64H53.8475V33.36H53.2875V33.76H53.0475V33.36H51.9675V33.12H53.0475V32.72H53.2875V33.12H53.8475V32.72H54.0875V33.12H54.2075C54.2075 33.0933 54.2208 33.0667 54.2475 33.04C54.3008 32.8533 54.3408 32.6933 54.3675 32.56H51.3275V32.32H54.4475C54.4742 32.1867 54.5008 32.0533 54.5275 31.92C54.5275 31.8933 54.5275 31.84 54.5275 31.76H51.6875V31.92H51.4475V31.76H51.0875V31.52H51.4475V30.96H50.9275V30.72H51.4475V30.16H50.8475V29.92H51.4475V29.36H50.8475V29.12H51.4475V28.56H50.8475V28.32H51.4475V27.76H50.8475V27.52H51.4475V26.96H50.9275V26.72H51.4475V26.16H51.0875V25.92H51.4475V25.44H51.6875V25.92H52.2475V25.28H52.4875V25.92H53.0475V25.52H53.2875V25.92H54.1275V26.16H54.0875V26.72H54.6475V26.48H54.8875V26.72H55.3275V26.96H54.8875V27.52H55.4475V27.12H55.6875V27.52H56.5275V27.76H56.4875V28.32H57.0475V28.16H57.2875V28.32H57.5675V28.56H57.2875V29.12H57.8475V28.64H58.0875V29.92H58.2075V30.16H58.0875V30.72H58.3675V30.96H58.0875V31.52H58.6475V30.96H58.5275V30.72H58.6475V29.12H58.8875V30.72H59.4475V29.6H59.6875V30.72H60.2475V30.16H60.4875V30.68C60.5408 30.68 60.5808 30.6933 60.6075 30.72C60.6608 30.72 60.6875 30.72 60.6875 30.72H61.1675V30.8H61.2875V30.88C61.4208 30.9333 61.5408 31.0133 61.6475 31.12C61.7808 31.2 61.9008 31.2667 62.0075 31.32L62.0475 31.36H62.0875V31.4C62.1408 31.4267 62.2075 31.4667 62.2875 31.52H62.4475V31.64C62.6075 31.7467 62.7675 31.8533 62.9275 31.96C63.0875 32.0667 63.2475 32.1867 63.4075 32.32H63.5675V32.44C63.7542 32.6 63.9275 32.7467 64.0875 32.88C64.1675 32.96 64.2475 33.04 64.3275 33.12H64.7675V33.36H64.5275C64.6075 33.4667 64.6742 33.5733 64.7275 33.68C64.8075 33.76 64.8742 33.84 64.9275 33.92H65.6475V34.16H65.0875C65.1675 34.2667 65.2342 34.3733 65.2875 34.48C65.3408 34.56 65.3808 34.64 65.4075 34.72H66.0875V34.6H66.3275V35.44C66.4342 35.3867 66.5275 35.3467 66.6075 35.32C66.6608 35.2933 66.7542 35.28 66.8875 35.28V34.84H67.1275V35.32C67.1808 35.32 67.2208 35.32 67.2475 35.32C67.3008 35.32 67.3408 35.32 67.3675 35.32C67.4208 35.2933 67.4608 35.28 67.4875 35.28C67.5408 35.3067 67.6075 35.36 67.6875 35.44V35.4H67.9275V35.6C68.3008 35.8667 68.5408 36.12 68.6475 36.36H68.7275V36.52C68.7542 36.5733 68.7808 36.64 68.8075 36.72C68.8342 36.8 68.8475 36.8667 68.8475 36.92C69.0608 37.32 69.0608 37.8 68.8475 38.36C68.6608 38.92 68.3675 39.4667 67.9675 40C67.5942 40.5333 67.2075 40.96 66.8075 41.28L66.7675 41.32V41.36H66.6875C66.5542 41.4667 66.3942 41.5733 66.2075 41.68C66.0475 41.7867 65.8875 41.8667 65.7275 41.92V42.16H64.7275V42.76H64.5275V42.96H63.9275V43.32H63.6875V42.96H63.5675C63.5408 43.0933 63.5142 43.1867 63.4875 43.24C63.4608 43.2933 63.4208 43.3467 63.3675 43.4C63.3142 43.4267 63.2742 43.4667 63.2475 43.52H63.3275V43.76H63.1275V43.88H62.8875C62.7275 44.04 62.5408 44.2 62.3275 44.36V44.52H62.2075V44.56H62.0475C61.9675 44.6133 61.8742 44.68 61.7675 44.76C61.6875 44.8133 61.6075 44.8667 61.5275 44.92V45.08H61.2875C61.2342 45.1067 61.1408 45.16 61.0075 45.24V45.36H60.8475L60.7275 45.44V45.56H60.5675C60.3275 45.72 60.1142 45.8533 59.9275 45.96V46.04H59.8075C59.7808 46.0667 59.7542 46.08 59.7275 46.08V46.16H59.6075C59.4475 46.2667 59.2875 46.36 59.1275 46.44V46.52H58.9275C58.7142 46.6267 58.5142 46.7067 58.3275 46.76V47H58.0875V46.84C57.8742 46.8933 57.6875 46.92 57.5275 46.92V47.56H57.2875V46.92C57.2075 46.8933 57.1275 46.8667 57.0475 46.84C56.9942 46.84 56.9408 46.84 56.8875 46.84C56.8342 46.8133 56.7808 46.8 56.7275 46.8V48.2H56.4875V46.68C56.4342 46.6267 56.3808 46.5867 56.3275 46.56C56.3008 46.5067 56.2608 46.4667 56.2075 46.44C56.1808 46.4133 56.1408 46.3867 56.0875 46.36C56.0342 46.3333 55.9942 46.3067 55.9675 46.28C55.9408 46.2533 55.9275 46.24 55.9275 46.24V46.72H56.2075V46.96H55.9275V47.52H56.1275V47.76H55.9275V48.76H55.6875V48.56H55.1275V49.32H54.9275V49.36H54.4475C54.4475 49.3867 54.4075 49.4133 54.3275 49.44V49.8H54.0875V49.6C53.8475 49.7333 53.6608 49.8267 53.5275 49.88V50.2H53.2875V50C53.1008 50.0533 52.9142 50.12 52.7275 50.2Z" fill="#333333"/>
</svg>
